<svg width="100" height="125" viewBox="0 0 100 125" fill="none" xmlns="http://www.w3.org/2000/svg">
<path d="M88.7998 33.6C86.6998 28.6 83.5998 24.1 79.7998 20.2C75.8998 16.3 71.3998 13.3 66.3998 11.2C61.1998 8.99999 55.6998 7.79999 49.9998 7.79999C44.2998 7.79999 38.7998 8.99999 33.5998 11.2C28.5998 13.3 24.0998 16.4 20.1998 20.2C16.2998 24.1 13.2998 28.6 11.1998 33.6C8.9998 38.8 7.7998 44.3 7.7998 50C7.7998 55.7 8.9998 61.2 11.1998 66.4C13.2998 71.4 16.3998 75.9 20.1998 79.8C24.0998 83.7 28.5998 86.7 33.5998 88.8C38.7998 91 44.2998 92.1 49.9998 92.1C55.6998 92.1 61.1998 91 66.3998 88.8C71.3998 86.7 75.8998 83.6 79.7998 79.8C83.6998 75.9 86.6998 71.4 88.7998 66.4C90.9998 61.2 92.0998 55.7 92.0998 50C92.0998 44.3 90.9998 38.8 88.7998 33.6Z" fill="#5E1995"/>
</svg>
