<svg width="100" height="125" viewBox="0 0 100 125" fill="none" xmlns="http://www.w3.org/2000/svg">
<path d="M83.5 40V41.5H85H92.5C93.0526 41.5 93.5 41.9474 93.5 42.5V77.5C93.5 78.0526 93.0526 78.5 92.5 78.5H85H83.5V80V92.5C83.5 93.0526 83.0526 93.5 82.5 93.5H17.5C16.9474 93.5 16.5 93.0526 16.5 92.5V80V78.5H15H7.5C6.94743 78.5 6.5 78.0526 6.5 77.5V42.5C6.5 41.9474 6.94743 41.5 7.5 41.5H15H16.5V40V7.5C16.5 6.94743 16.9474 6.5 17.5 6.5H67.5C67.7641 6.5 68.0193 6.60526 68.2079 6.79326C68.2081 6.79343 68.2083 6.79361 68.2085 6.79379L83.2073 21.7927C83.3946 21.9799 83.5 22.2342 83.5 22.5V40ZM71.0606 12.4753L68.5 9.91507V13.536V20V21.5H70H76.465H80.0867L77.5256 18.9393L71.0606 12.4753ZM20 8.5H18.5V10V40V41.5H20H80H81.5V40V25V23.5H80H66.5V10V8.5H65H20ZM80 91.5H81.5V90V80V78.5H80H20H18.5V80V90V91.5H20H80ZM90 76.5H91.5V75V45V43.5H90H10H8.5V45V75V76.5H10H90Z" stroke="#5E1995" stroke-width="3"/>
<path d="M40 62.5V57.5C40 53.364 36.636 50 32.5 50H25V70H32.5C36.636 70 40 66.636 40 62.5ZM30 55H32.5C33.878 55 35 56.121 35 57.5V62.5C35 63.879 33.878 65 32.5 65H30V55Z" fill="#5E1995"/>
<path d="M50 70C54.136 70 57.5 66.636 57.5 62.5V57.5C57.5 53.364 54.136 50 50 50C45.864 50 42.5 53.364 42.5 57.5V62.5C42.5 66.636 45.864 70 50 70ZM47.5 57.5C47.5 56.121 48.622 55 50 55C51.378 55 52.5 56.121 52.5 57.5V62.5C52.5 63.879 51.378 65 50 65C48.622 65 47.5 63.879 47.5 62.5V57.5Z" fill="#5E1995"/>
<path d="M67.5 70H75V65H67.5C66.122 65 65 63.879 65 62.5V57.5C65 56.121 66.122 55 67.5 55H75V50H67.5C63.364 50 60 53.364 60 57.5V62.5C60 66.636 63.364 70 67.5 70Z" fill="#5E1995"/>
</svg>
