<svg width="128" height="128" viewBox="0 0 128 128" fill="none" xmlns="http://www.w3.org/2000/svg">
<path d="M17.2479 114H111.752C112.441 114 113 113.385 113 112.627V105.921C113 105.163 112.441 104.548 111.752 104.548H105.042V83.2278V83.2261V58.4706V58.4681V51.0716H107.567C108.256 51.0716 108.815 50.4568 108.815 49.6986V34.3714C108.815 33.6132 108.256 32.9984 107.567 32.9984H63.3971V15.373C63.3971 14.6148 62.8384 14 62.1492 14H49.5252C49.2656 14 49.0127 14.0892 48.8013 14.2548L21.0861 35.9677C20.757 36.2251 20.562 36.6421 20.562 37.0859V104.548H17.2479C16.5588 104.548 16 105.163 16 105.921V112.627C16 113.385 16.5588 114 17.2479 114ZM62.1492 35.7451L62.1523 35.7444H106.319V48.3256H62.1523L62.1492 48.3249L62.1462 48.3256H38.2941V35.7444H62.1462L62.1492 35.7451ZM77.8351 70.784C78.0386 71.3036 78.4987 71.6146 78.9819 71.6146C79.1464 71.6146 79.314 71.5784 79.4748 71.502L102.546 60.5656V69.3516L90.8772 75.1075C90.2483 75.4179 89.9668 76.2305 90.2489 76.9224C90.4567 77.4319 90.9119 77.7342 91.3884 77.7342C91.559 77.7342 91.7327 77.6954 91.8984 77.6136L102.546 72.3614V82.3145L83.1174 91.321C82.4819 91.6153 82.1845 92.4205 82.452 93.1191C82.6525 93.644 83.1156 93.9598 83.6024 93.9598C83.7639 93.9598 83.9284 93.9249 84.0862 93.8512L102.546 85.2938V104.548H63.3971V51.0716H102.546V57.5756L78.4877 68.9799C77.8546 69.2802 77.5628 70.0881 77.8351 70.784ZM23.0578 37.7939L49.9243 16.746H60.9013V32.9984H37.0462C36.357 32.9984 35.7983 33.6132 35.7983 34.3714V49.6986C35.7983 50.4568 36.357 51.0716 37.0462 51.0716H60.9013V88.4074H33.2604C32.5713 88.4074 32.0125 89.0221 32.0125 89.7804C32.0125 90.5386 32.5713 91.1534 33.2604 91.1534H60.9013V96.7005H47.7051C47.016 96.7005 46.4572 97.3152 46.4572 98.0735C46.4572 98.8317 47.016 99.4465 47.7051 99.4465H60.9013V104.548H23.0578V37.7939ZM18.4958 107.294H110.504V111.254H18.4958V107.294Z" fill="black"/>
<path d="M32.1278 69.9777H36.5963V74.9388C36.5963 75.6468 37.1133 76.2208 37.751 76.2208H42.6413C43.279 76.2208 43.796 75.6468 43.796 74.9388V69.9777H48.2645C48.9022 69.9777 49.4193 69.4037 49.4193 68.6957V63.2663C49.4193 62.5583 48.9022 61.9843 48.2645 61.9843H43.796V57.0232C43.796 56.3152 43.279 55.7412 42.6413 55.7412H37.751C37.1133 55.7412 36.5963 56.3152 36.5963 57.0232V61.9843H32.1278C31.49 61.9843 30.973 62.5583 30.973 63.2663V68.6957C30.973 69.4037 31.49 69.9777 32.1278 69.9777ZM33.2825 64.5484H37.751C38.3887 64.5484 38.9058 63.9744 38.9058 63.2663V58.3053H41.4865V63.2663C41.4865 63.9744 42.0036 64.5484 42.6413 64.5484H47.1098V67.4136H42.6413C42.0036 67.4136 41.4865 67.9877 41.4865 68.6957V73.6567H38.9058V68.6957C38.9058 67.9877 38.3887 67.4136 37.751 67.4136H33.2825V64.5484V64.5484Z" fill="black"/>
<path d="M42.0763 90.6877H40.1964C39.5587 90.6877 39.0417 91.2618 39.0417 91.9698C39.0417 92.6778 39.5587 93.2518 40.1964 93.2518H42.0763C42.714 93.2518 43.2311 92.6778 43.2311 91.9698C43.2311 91.2618 42.714 90.6877 42.0763 90.6877Z" fill="black"/>
<path d="M72.0572 88.5675L70.4965 89.298C69.909 89.5728 69.6332 90.3247 69.8813 90.9776C70.0674 91.4671 70.4954 91.762 70.9459 91.762C71.0953 91.762 71.2475 91.7294 71.3941 91.6605L72.9549 90.93C73.5424 90.6552 73.8181 89.9034 73.57 89.2504C73.3225 88.5988 72.6453 88.2901 72.0572 88.5675Z" fill="black"/>
</svg>
