<svg width="43" height="41" viewBox="0 0 43 41" fill="none" xmlns="http://www.w3.org/2000/svg">
<path d="M30.5044 25.9043H28.6179L27.9492 25.2791C30.2895 22.6393 31.6984 19.2122 31.6984 15.4841C31.6984 7.17107 24.7492 0.432648 16.1761 0.432648C7.60303 0.432648 0.653809 7.17107 0.653809 15.4841C0.653809 23.7971 7.60303 30.5356 16.1761 30.5356C20.0209 30.5356 23.5552 29.1694 26.2776 26.9001L26.9223 27.5484V29.3778L38.8626 40.9326L42.4208 37.4824L30.5044 25.9043V25.9043ZM16.1761 25.9043C10.2299 25.9043 5.42991 21.25 5.42991 15.4841C5.42991 9.71824 10.2299 5.06387 16.1761 5.06387C22.1224 5.06387 26.9223 9.71824 26.9223 15.4841C26.9223 21.25 22.1224 25.9043 16.1761 25.9043Z" fill="white"/>
</svg>
