<svg width="128" height="128" viewBox="0 0 128 128" fill="none" xmlns="http://www.w3.org/2000/svg">
<path d="M110.752 106.291H108.744V66.9491C108.744 66.4014 108.351 65.9245 107.794 65.7938L94.5672 62.6965V20.7464C94.5672 20.0894 94.0084 19.5567 93.3193 19.5567H80.4378C80.0524 16.4371 77.2939 14 73.9195 14H53.0805C49.7061 14 46.9476 16.4371 46.5622 19.5567H33.6808C32.9916 19.5567 32.4328 20.0894 32.4328 20.7464V62.6965L19.2062 65.7938C18.6487 65.9245 18.2562 66.4014 18.2562 66.9491V106.291H16.2479C15.5588 106.291 15 106.823 15 107.48V113.29C15 113.947 15.5588 114.48 16.2479 114.48H110.752C111.441 114.48 112 113.947 112 113.29V107.48C112 106.823 111.441 106.291 110.752 106.291ZM94.5672 65.1467L106.248 67.882V106.291H94.5672V65.1467ZM48.9803 20.7493C48.9803 20.7483 48.981 20.7474 48.981 20.7464C48.981 20.7453 48.9803 20.7445 48.9803 20.7435V20.288C48.9803 18.133 50.8199 16.3793 53.0805 16.3793H73.9195C76.1801 16.3793 78.0197 18.133 78.0197 20.288V40.1548C78.0197 42.3099 76.1801 44.063 73.9195 44.063H53.0805C50.8199 44.063 48.9803 42.3099 48.9803 40.1548V20.7493V20.7493ZM34.9287 21.936H46.4845V40.1548C46.4845 43.6215 49.4434 46.4423 53.0805 46.4423H73.9195C77.5566 46.4423 80.5155 43.6215 80.5155 40.1548V21.936H92.0713V106.291H34.9287V21.936ZM20.752 67.882L32.4328 65.1467V106.291H20.752V67.882ZM109.504 112.101H17.4958V108.67H109.504V112.101V112.101Z" fill="black"/>
<path d="M85.6283 77.825H41.3717C40.6825 77.825 40.1238 78.3577 40.1238 79.0146V87.3567C40.1238 88.0136 40.6825 88.5463 41.3717 88.5463H85.6283C86.3174 88.5463 86.8762 88.0136 86.8762 87.3567V79.0146C86.8762 78.3577 86.3174 77.825 85.6283 77.825ZM51.1879 86.167H42.6196V80.2043H51.1879V86.167ZM62.2521 86.167H53.6837V80.2043H62.2521V86.167ZM73.3162 86.167H64.7479V80.2043H73.3162V86.167ZM84.3804 86.167H75.812V80.2043H84.3804V86.167Z" fill="black"/>
<path d="M85.6283 92.1008H41.3717C40.6825 92.1008 40.1238 92.6334 40.1238 93.2904V101.632C40.1238 102.289 40.6825 102.822 41.3717 102.822H85.6283C86.3174 102.822 86.8762 102.289 86.8762 101.632V93.2904C86.8762 92.6334 86.3174 92.1008 85.6283 92.1008ZM51.1879 100.443H42.6196V94.4801H51.1879V100.443ZM62.2521 100.443H53.6837V94.4801H62.2521V100.443ZM73.3162 100.443H64.7479V94.4801H73.3162V100.443ZM84.3804 100.443H75.812V94.4801H84.3804V100.443Z" fill="black"/>
<path d="M85.6283 49.2735H41.3717C40.6825 49.2735 40.1238 49.8062 40.1238 50.4631V58.8052C40.1238 59.4622 40.6825 59.9948 41.3717 59.9948H85.6283C86.3174 59.9948 86.8762 59.4622 86.8762 58.8052V50.4631C86.8762 49.8062 86.3174 49.2735 85.6283 49.2735ZM51.1879 57.6155H42.6196V51.6528H51.1879V57.6155ZM62.2521 57.6155H53.6837V51.6528H62.2521V57.6155ZM73.3162 57.6155H64.7479V51.6528H73.3162V57.6155ZM84.3804 57.6155H75.812V51.6528H84.3804V57.6155Z" fill="black"/>
<path d="M85.6283 63.5493H41.3717C40.6825 63.5493 40.1238 64.0819 40.1238 64.7389V73.081C40.1238 73.7379 40.6825 74.2706 41.3717 74.2706H85.6283C86.3174 74.2706 86.8762 73.7379 86.8762 73.081V64.7389C86.8762 64.0819 86.3174 63.5493 85.6283 63.5493ZM51.1879 71.8913H42.6196V65.9286H51.1879V71.8913ZM62.2521 71.8913H53.6837V65.9286H62.2521V71.8913ZM73.3162 71.8913H64.7479V65.9286H73.3162V71.8913ZM84.3804 71.8913H75.812V65.9286H84.3804V71.8913Z" fill="black"/>
<path d="M54.3406 34.0567H59.4766V38.9535C59.4766 39.6105 60.0354 40.1432 60.7245 40.1432H66.2755C66.9646 40.1432 67.5234 39.6105 67.5234 38.9535V34.0567H72.6594C73.3485 34.0567 73.9073 33.524 73.9073 32.867V27.5752C73.9073 26.9182 73.3485 26.3856 72.6594 26.3856H67.5234V21.4893C67.5234 20.8323 66.9646 20.2997 66.2755 20.2997H60.7245C60.0354 20.2997 59.4766 20.8323 59.4766 21.4893V26.3856H54.3406C53.6514 26.3856 53.0927 26.9182 53.0927 27.5752V32.867C53.0927 33.524 53.6514 34.0567 54.3406 34.0567ZM55.5885 28.7648H60.7245C61.4137 28.7648 61.9724 28.2322 61.9724 27.5752V22.6789H65.0276V27.5752C65.0276 28.2322 65.5863 28.7648 66.2755 28.7648H71.4115V31.6774H66.2755C65.5863 31.6774 65.0276 32.2101 65.0276 32.867V37.7639H61.9724V32.867C61.9724 32.2101 61.4137 31.6774 60.7245 31.6774H55.5885V28.7648Z" fill="black"/>
</svg>
