<svg width="100" height="125" viewBox="0 0 100 125" fill="none" xmlns="http://www.w3.org/2000/svg">
<path d="M92.5 40H85V22.5C85 21.837 84.737 21.201 84.268 20.732L69.268 5.732C68.799 5.263 68.163 5 67.5 5H17.5C16.119 5 15 6.119 15 7.5V40H7.5C6.119 40 5 41.119 5 42.5V77.5C5 78.881 6.119 80 7.5 80H15V92.5C15 93.881 16.119 95 17.5 95H82.5C83.881 95 85 93.881 85 92.5V80H92.5C93.881 80 95 78.881 95 77.5V42.5C95 41.119 93.881 40 92.5 40ZM70 13.536L76.464 20H70V13.536ZM20 10H65V25H80V40H20V10ZM80 90H20V80H80V90ZM90 75H10V45H90V75Z" fill="#5E1995"/>
<path d="M30 65H32.5C36.636 65 40 61.636 40 57.5C40 53.364 36.636 50 32.5 50H27.5C26.119 50 25 51.119 25 52.5V70H30V65ZM30 55H32.5C33.878 55 35 56.122 35 57.5C35 58.878 33.878 60 32.5 60H30V55Z" fill="#5E1995"/>
<path d="M57 62.5V57.5C57 53.364 53.636 50 49.5 50H42V70H49.5C53.636 70 57 66.636 57 62.5ZM47 55H49.5C50.878 55 52 56.121 52 57.5V62.5C52 63.879 50.878 65 49.5 65H47V55Z" fill="#5E1995"/>
<path d="M65 62.5H72.5V57.5H65V55H75V50H62.5C61.119 50 60 51.119 60 52.5V57.5V62.5V70H65V62.5Z" fill="#5E1995"/>
</svg>
