<svg width="128" height="128" viewBox="0 0 128 128" fill="none" xmlns="http://www.w3.org/2000/svg">
<path d="M40.25 14H20.85C19.5637 14 18.3301 14.6321 17.4205 15.7574C16.511 16.8826 16 18.4087 16 20V108C16 109.591 16.511 111.117 17.4205 112.243C18.3301 113.368 19.5637 114 20.85 114H40.25C41.5363 114 42.7699 113.368 43.6795 112.243C44.589 111.117 45.1 109.591 45.1 108V20C45.1 18.4087 44.589 16.8826 43.6795 15.7574C42.7699 14.6321 41.5363 14 40.25 14ZM41.8667 108C41.8667 108.53 41.6963 109.039 41.3932 109.414C41.09 109.789 40.6788 110 40.25 110H20.85C20.4212 110 20.01 109.789 19.7068 109.414C19.4037 109.039 19.2333 108.53 19.2333 108V20C19.2333 19.4696 19.4037 18.9609 19.7068 18.5858C20.01 18.2107 20.4212 18 20.85 18H40.25C40.6788 18 41.09 18.2107 41.3932 18.5858C41.6963 18.9609 41.8667 19.4696 41.8667 20V108Z" fill="black"/>
<path d="M98.45 51.9999V35.9999C98.45 35.4695 98.2797 34.9608 97.9765 34.5857C97.6733 34.2107 97.2621 33.9999 96.8333 33.9999H58.0333C57.6046 33.9999 57.1934 34.2107 56.8902 34.5857C56.587 34.9608 56.4167 35.4695 56.4167 35.9999V51.9999C56.4167 52.5304 56.587 53.0391 56.8902 53.4141C57.1934 53.7892 57.6046 53.9999 58.0333 53.9999H96.8333C97.2621 53.9999 97.6733 53.7892 97.9765 53.4141C98.2797 53.0391 98.45 52.5304 98.45 51.9999ZM95.2167 49.9999H59.65V37.9999H95.2167V49.9999Z" fill="black"/>
<path d="M35.4 33.9999H25.7V37.9999H35.4V33.9999Z" fill="black"/>
<path d="M35.4 42H25.7V46H35.4V42Z" fill="black"/>
<path d="M80.6667 64H74.2V68H80.6667V64Z" fill="black"/>
<path d="M80.6667 78H74.2V82H80.6667V78Z" fill="black"/>
<path d="M80.6667 92H74.2V96H80.6667V92Z" fill="black"/>
<path d="M67.7333 64H61.2667V68H67.7333V64Z" fill="black"/>
<path d="M67.7333 78H61.2667V82H67.7333V78Z" fill="black"/>
<path d="M67.7333 92H61.2667V96H67.7333V92Z" fill="black"/>
<path d="M93.6 64H87.1334V68H93.6V64Z" fill="black"/>
<path d="M93.6 78H87.1334V82H93.6V78Z" fill="black"/>
<path d="M93.6 92H87.1334V96H93.6V92Z" fill="black"/>
<path d="M106.533 20H49.95C49.5212 20 49.11 20.2107 48.8068 20.5858C48.5037 20.9608 48.3333 21.4696 48.3333 22C48.3333 22.5304 48.5037 23.0391 48.8068 23.4142C49.11 23.7893 49.5212 24 49.95 24H106.533C107.391 24 108.213 24.4214 108.82 25.1716C109.426 25.9217 109.767 26.9391 109.767 28V104C109.767 105.061 109.426 106.078 108.82 106.828C108.213 107.579 107.391 108 106.533 108H49.95C49.5212 108 49.11 108.211 48.8068 108.586C48.5037 108.961 48.3333 109.47 48.3333 110C48.3333 110.53 48.5037 111.039 48.8068 111.414C49.11 111.789 49.5212 112 49.95 112H106.533C108.248 112 109.893 111.157 111.106 109.657C112.319 108.157 113 106.122 113 104V28C113 25.8783 112.319 23.8434 111.106 22.3431C109.893 20.8428 108.248 20 106.533 20V20Z" fill="black"/>
</svg>
