<svg width="128" height="128" viewBox="0 0 128 128" fill="none" xmlns="http://www.w3.org/2000/svg">
<path d="M34.4954 51H92.5046C93.3146 51 94 49.8542 94 48.5C94 47.1458 93.3146 46 92.5046 46H34.4954C33.6854 46 33 47.1458 33 48.5C33 49.8542 33.6854 51 34.4954 51Z" fill="black"/>
<path d="M92.5008 61H34.4953C33.6853 61 33 62.1458 33 63.5C33 64.8542 33.6853 66 34.4953 66H92.5008C93.3107 66 93.9961 64.8542 93.9961 63.5C94.0584 62.1458 93.373 61 92.5008 61Z" fill="black"/>
<mask id="path-3-inside-1" fill="white">
<path d="M92.5046 76H34.4954C33.6854 76 33 77.1458 33 78.5C33 79.8542 33.6854 81 34.4954 81H92.5046C93.3146 81 94 79.8542 94 78.5C94 77.1458 93.3769 76 92.5046 76Z"/>
</mask>
<path d="M92.5046 76H34.4954C33.6854 76 33 77.1458 33 78.5C33 79.8542 33.6854 81 34.4954 81H92.5046C93.3146 81 94 79.8542 94 78.5C94 77.1458 93.3769 76 92.5046 76Z" fill="black"/>
<path d="M92.5046 67H34.4954V85H92.5046V67ZM34.4954 67C29.5653 67 26.7711 70.3653 25.7203 72.1222C24.5081 74.1486 24 76.4118 24 78.5H42C42 79.2341 41.8345 80.2473 41.1676 81.3622C40.662 82.2076 38.6155 85 34.4954 85V67ZM24 78.5C24 80.5882 24.5081 82.8514 25.7202 84.8778C26.7711 86.6346 29.5653 90 34.4954 90V72C38.6155 72 40.662 74.7924 41.1676 75.6378C41.8346 76.7527 42 77.7659 42 78.5H24ZM34.4954 90H92.5046V72H34.4954V90ZM92.5046 90C97.4347 90 100.229 86.6346 101.28 84.8778C102.492 82.8514 103 80.5882 103 78.5H85C85 77.7659 85.1655 76.7527 85.8324 75.6378C86.338 74.7924 88.3845 72 92.5046 72V90ZM103 78.5C103 76.5715 102.578 74.3142 101.361 72.2205C100.202 70.225 97.3548 67 92.5046 67V85C88.5267 85 86.4276 82.3479 85.7978 81.2639C85.1108 80.0817 85 79.0743 85 78.5H103Z" fill="black" mask="url(#path-3-inside-1)"/>
</svg>
