<svg width="128" height="128" viewBox="0 0 128 128" fill="none" xmlns="http://www.w3.org/2000/svg">
<path d="M28.9391 101.258H100.061C100.58 101.258 101 100.795 101 100.224V95.178C101 94.6073 100.58 94.1447 100.061 94.1447H95.0111V78.0992V78.098V59.4676V59.4657V53.8992H96.9114C97.4301 53.8992 97.8506 53.4366 97.8506 52.8659V41.3311C97.8506 40.7604 97.4301 40.2978 96.9114 40.2978H63.67V27.0333C63.67 26.4627 63.2495 26 62.7309 26H53.2303C53.0349 26 52.8446 26.0671 52.6855 26.1917L31.8276 42.5324C31.58 42.7261 31.4333 43.04 31.4333 43.374V94.1447H28.9391C28.4205 94.1447 28 94.6073 28 95.178V100.224C28 100.795 28.4205 101.258 28.9391 101.258ZM62.7309 42.3649L62.7332 42.3644H95.9723V51.8326H62.7332L62.7309 51.8321L62.7286 51.8326H44.778V42.3644H62.7286L62.7309 42.3649ZM74.5357 68.7343C74.6889 69.1254 75.0351 69.3595 75.3987 69.3595C75.5225 69.3595 75.6487 69.3322 75.7697 69.2747L93.1329 61.0442V67.6564L84.3509 71.9881C83.8776 72.2218 83.6658 72.8333 83.8781 73.3539C84.0344 73.7374 84.377 73.9649 84.7356 73.9649C84.864 73.9649 84.9947 73.9357 85.1194 73.8741L93.1329 69.9215V77.4119L78.511 84.19C78.0327 84.4115 77.809 85.0175 78.0103 85.5432C78.1611 85.9383 78.5096 86.1759 78.876 86.1759C78.9976 86.1759 79.1214 86.1497 79.2401 86.0942L93.1329 79.6541V94.1447H63.67V53.8992H93.1329V58.794L75.0268 67.3766C74.5504 67.6027 74.3307 68.2106 74.5357 68.7343ZM33.3116 43.9068L53.5306 28.0666H61.7917V40.2978H43.8389C43.3202 40.2978 42.8997 40.7604 42.8997 41.3311V52.8659C42.8997 53.4366 43.3202 53.8992 43.8389 53.8992H61.7917V81.9973H40.9898C40.4712 81.9973 40.0507 82.4599 40.0507 83.0306C40.0507 83.6012 40.4712 84.0639 40.9898 84.0639H61.7917V88.2385H51.8606C51.3419 88.2385 50.9214 88.7012 50.9214 89.2718C50.9214 89.8424 51.3419 90.3051 51.8606 90.3051H61.7917V94.1447H33.3116V43.9068ZM29.8783 96.2113H99.1217V99.1911H29.8783V96.2113Z" fill="#1E935F"/>
<path d="M40.1374 68.1276H43.5003V71.8611C43.5003 72.394 43.8894 72.826 44.3693 72.826H48.0496C48.5296 72.826 48.9187 72.394 48.9187 71.8611V68.1276H52.2816C52.7615 68.1276 53.1506 67.6955 53.1506 67.1627V63.0767C53.1506 62.5439 52.7615 62.1119 52.2816 62.1119H48.9187V58.3783C48.9187 57.8455 48.5296 57.4135 48.0496 57.4135H44.3693C43.8894 57.4135 43.5003 57.8455 43.5003 58.3783V62.1119H40.1374C39.6575 62.1119 39.2683 62.5439 39.2683 63.0767V67.1627C39.2683 67.6955 39.6575 68.1276 40.1374 68.1276ZM41.0064 64.0416H44.3693C44.8493 64.0416 45.2384 63.6096 45.2384 63.0767V59.3432H47.1806V63.0767C47.1806 63.6096 47.5697 64.0416 48.0496 64.0416H51.4125V66.1979H48.0496C47.5697 66.1979 47.1806 66.6299 47.1806 67.1627V70.8963H45.2384V67.1627C45.2384 66.6299 44.8493 66.1979 44.3693 66.1979H41.0064V64.0416Z" fill="#1E935F"/>
<path d="M47.6244 83.7134H46.2097C45.7298 83.7134 45.3406 84.1455 45.3406 84.6783C45.3406 85.2111 45.7298 85.6431 46.2097 85.6431H47.6244C48.1044 85.6431 48.4935 85.2111 48.4935 84.6783C48.4935 84.1455 48.1044 83.7134 47.6244 83.7134Z" fill="#1E935F"/>
<path d="M70.1874 82.1178L69.0128 82.6676C68.5707 82.8744 68.3632 83.4402 68.5499 83.9316C68.6899 84.3 69.012 84.5219 69.351 84.5219C69.4635 84.5219 69.578 84.4974 69.6884 84.4456L70.8629 83.8958C71.3051 83.6889 71.5126 83.1231 71.3259 82.6318C71.1396 82.1413 70.63 81.9091 70.1874 82.1178Z" fill="#1E935F"/>
</svg>
