<svg width="128" height="128" viewBox="0 0 128 128" fill="none" xmlns="http://www.w3.org/2000/svg">
<path d="M106.5 54H99V36.5C99 35.837 98.737 35.201 98.268 34.732L83.268 19.732C82.799 19.263 82.163 19 81.5 19H31.5C30.119 19 29 20.119 29 21.5V54H21.5C20.119 54 19 55.119 19 56.5V91.5C19 92.881 20.119 94 21.5 94H29V106.5C29 107.881 30.119 109 31.5 109H96.5C97.881 109 99 107.881 99 106.5V94H106.5C107.881 94 109 92.881 109 91.5V56.5C109 55.119 107.881 54 106.5 54ZM84 27.536L90.464 34H84V27.536ZM34 24H79V39H94V54H34V24ZM94 104H34V94H94V104ZM104 89H24V59H104V89Z" fill="#5E1995"/>
<path d="M44 79H46.5C50.636 79 54 75.636 54 71.5C54 67.364 50.636 64 46.5 64H41.5C40.119 64 39 65.119 39 66.5V84H44V79ZM44 69H46.5C47.878 69 49 70.122 49 71.5C49 72.878 47.878 74 46.5 74H44V69Z" fill="#5E1995"/>
<path d="M71 76.5V71.5C71 67.364 67.636 64 63.5 64H56V84H63.5C67.636 84 71 80.636 71 76.5ZM61 69H63.5C64.878 69 66 70.121 66 71.5V76.5C66 77.879 64.878 79 63.5 79H61V69Z" fill="#5E1995"/>
<path d="M78 76.5H85.5V71.5H78V69H88V64H75.5C74.119 64 73 65.119 73 66.5V71.5V76.5V84H78V76.5Z" fill="#5E1995"/>
</svg>
