<svg width="98" height="98" viewBox="0 0 98 98" fill="none" xmlns="http://www.w3.org/2000/svg">
<path d="M34.2005 26.7969C34.2005 26.3908 34.3618 26.0013 34.649 25.7141C34.9361 25.427 35.3256 25.2656 35.7317 25.2656H61.9544C62.3605 25.2656 62.75 25.427 63.0371 25.7141C63.3243 26.0013 63.4856 26.3908 63.4856 26.7969C63.4856 27.203 63.3243 27.5925 63.0371 27.8796C62.75 28.1668 62.3605 28.3281 61.9544 28.3281H35.7317C35.3256 28.3281 34.9361 28.1668 34.649 27.8796C34.3618 27.5925 34.2005 27.203 34.2005 26.7969ZM79.8853 25.2656H74.1125C73.7064 25.2656 73.3169 25.427 73.0297 25.7141C72.7426 26.0013 72.5812 26.3908 72.5812 26.7969C72.5812 27.203 72.7426 27.5925 73.0297 27.8796C73.3169 28.1668 73.7064 28.3281 74.1125 28.3281H78.3541V73.5H19.1406V28.3281H23.1448C23.551 28.3281 23.9404 28.1668 24.2276 27.8796C24.5148 27.5925 24.6761 27.203 24.6761 26.7969C24.6761 26.3908 24.5148 26.0013 24.2276 25.7141C23.9404 25.427 23.551 25.2656 23.1448 25.2656H17.6094C17.2033 25.2656 16.8138 25.427 16.5266 25.7141C16.2395 26.0013 16.0781 26.3908 16.0781 26.7969V75.0312C16.0781 75.4374 16.2395 75.8268 16.5266 76.114C16.8138 76.4012 17.2033 76.5625 17.6094 76.5625H79.8853C80.2914 76.5625 80.6809 76.4012 80.9681 76.114C81.2552 75.8268 81.4166 75.4374 81.4166 75.0312V26.7969C81.4166 26.3908 81.2552 26.0013 80.9681 25.7141C80.6809 25.427 80.2914 25.2656 79.8853 25.2656ZM29.4766 32.2864C29.8827 32.2864 30.2722 32.1251 30.5593 31.8379C30.8465 31.5507 31.0078 31.1613 31.0078 30.7552V22.9688C31.0078 22.5626 30.8465 22.1732 30.5593 21.886C30.2722 21.5988 29.8827 21.4375 29.4766 21.4375C29.0704 21.4375 28.681 21.5988 28.3938 21.886C28.1066 22.1732 27.9453 22.5626 27.9453 22.9688V30.7552C27.9453 31.1613 28.1066 31.5507 28.3938 31.8379C28.681 32.1251 29.0704 32.2864 29.4766 32.2864ZM67.7578 32.2864C68.1639 32.2864 68.5534 32.1251 68.8406 31.8379C69.1277 31.5507 69.2891 31.1613 69.2891 30.7552V22.9688C69.2891 22.5626 69.1277 22.1732 68.8406 21.886C68.5534 21.5988 68.1639 21.4375 67.7578 21.4375C67.3517 21.4375 66.9622 21.5988 66.6751 21.886C66.3879 22.1732 66.2266 22.5626 66.2266 22.9688V30.7552C66.2266 31.1613 66.3879 31.5507 66.6751 31.8379C66.9622 32.1251 67.3517 32.2864 67.7578 32.2864ZM39.8508 64.3125C39.993 64.4549 40.1619 64.5678 40.3478 64.6449C40.5337 64.7219 40.7329 64.7616 40.9341 64.7616C41.1354 64.7616 41.3346 64.7219 41.5205 64.6449C41.7064 64.5678 41.8753 64.4549 42.0175 64.3125L65.0475 41.2442C65.3389 40.9569 65.5042 40.5656 65.5071 40.1564C65.5099 39.7472 65.3501 39.3536 65.0628 39.0622C64.7755 38.7708 64.3842 38.6055 63.975 38.6026C63.5658 38.5997 63.1722 38.7596 62.8808 39.0469L40.9303 61.028L34.6139 54.7116C34.3266 54.4242 33.9369 54.2628 33.5305 54.2628C33.1242 54.2628 32.7345 54.4242 32.4472 54.7116C32.1599 54.9989 31.9984 55.3886 31.9984 55.7949C31.9984 56.2013 32.1599 56.591 32.4472 56.8783L39.8508 64.3125Z" fill="black" stroke="white"/>
</svg>
