<svg width="18" height="16" viewBox="0 0 18 16" fill="none" xmlns="http://www.w3.org/2000/svg">
<path d="M12.3197 10.0431H11.5777L11.3148 9.79804C12.2352 8.76355 12.7894 7.42053 12.7894 5.95954C12.7894 2.7018 10.0562 0.0611191 6.68435 0.0611191C3.31251 0.0611191 0.579346 2.7018 0.579346 5.95954C0.579346 9.21728 3.31251 11.858 6.68435 11.858C8.19651 11.858 9.58657 11.3226 10.6573 10.4333L10.9109 10.6873V11.4042L15.607 15.9324L17.0065 14.5803L12.3197 10.0431V10.0431ZM6.68435 10.0431C4.34566 10.0431 2.45781 8.21908 2.45781 5.95954C2.45781 3.69999 4.34566 1.87602 6.68435 1.87602C9.02303 1.87602 10.9109 3.69999 10.9109 5.95954C10.9109 8.21908 9.02303 10.0431 6.68435 10.0431Z" fill="white"/>
</svg>
