<svg width="124" height="124" viewBox="0 0 124 124" fill="none" xmlns="http://www.w3.org/2000/svg">
<path d="M85.169 31.9234H38.8316C35.0528 31.9234 32 35.0344 32 38.879H92C92 35.0338 88.9478 31.9234 85.169 31.9234V31.9234Z" fill="#00995D"/>
<path d="M65.609 24H58.3919C55.897 24 53.8931 26.0531 53.8931 28.5892H62.8907H61.1094H70.1082C70.1077 26.0531 68.1031 24 65.6088 24H65.609Z" fill="#00995D"/>
<path d="M35.1494 42.7498L40.6154 92.6495C40.6154 96.1575 43.4077 99.0001 46.8521 99.0001H77.1503C80.5958 99.0001 83.3877 96.1575 83.3877 92.6495L88.8526 42.7498H35.1494ZM50.4096 91.2582C49.0639 91.3564 47.8992 90.3322 47.8027 88.9668L44.9653 49.884C44.8688 48.515 45.8707 47.3246 47.2158 47.2274C48.5603 47.1292 49.7181 48.154 49.8226 49.5177L52.6578 88.6006C52.756 89.9684 51.7534 91.1588 50.4094 91.2582H50.4096ZM64.4376 88.8389C64.4376 90.2072 63.346 91.3198 62.0021 91.3198C60.6582 91.3198 59.5654 90.2072 59.5654 88.8389V49.6459C59.5654 48.277 60.657 47.1649 62.0021 47.1649C63.3466 47.1649 64.4376 48.2764 64.4376 49.6459V88.8389ZM76.1993 88.9662C76.1028 90.3322 74.937 91.3563 73.593 91.2575C72.2485 91.1581 71.2465 89.9676 71.3425 88.5994L74.18 49.5165C74.2839 48.1534 75.4411 47.128 76.7862 47.2262C78.1308 47.3238 79.1328 48.5143 79.0357 49.8827L76.1993 88.9662Z" fill="#00995D"/>
</svg>
